<?xml version="1.0" encoding="utf-8"?>
<!-- Generator: Adobe Illustrator 23.0.2, SVG Export Plug-In . SVG Version: 6.00 Build 0)  -->
<svg version="1.1" id="Layer_1" xmlns="http://www.w3.org/2000/svg" xmlns:xlink="http://www.w3.org/1999/xlink" x="0px" y="0px"
	 viewBox="0 0 267.041 237.1836" enable-background="new 0 0 267.041 237.1836" xml:space="preserve">
<g>
	<polygon points="225.9521,164.082 225.9521,193.3281 237.9521,193.3281 237.9521,164.082 248.7861,164.082 248.7861,155.082 
		83.0566,155.082 83.0566,164.082 	"/>
	<path d="M172.708,75.5801v51.0039h-66.7822c-0.045,1.9658-0.1084,3.9638-0.1914,5.998h6.4736v10.668h-7.6699
		c-0.6153,1.6348-1.5235,3.1221-2.6631,4.3974v2.2686h50.666v-6.666h-10.333v-10.668h36.5v-63H98.7598
		c0.748,1.8965,1.4345,3.8985,2.0644,5.9981H172.708z"/>
	<path d="M0.5957,138.7988c0.25,4.25,3.7754,7.5313,7.9795,7.5313c0.1572,0,0.3154-0.0039,0.4756-0.0137
		c4.4101-0.2598,7.7763-4.0449,7.5175-8.457c-0.3906-6.6485-0.5673-12.7051-0.5673-18.2207
		c-0.0342-24.2149,3.4961-37.8194,6.9638-44.919v33.1611v18.9395v98c0,6.8301,5.5371,12.3633,12.3633,12.3633
		c6.8281,0,12.3652-5.5332,12.3652-12.3633v-90.2715h4.6348v90.2715c0,6.8301,5.5371,12.3633,12.3633,12.3633
		c6.8281,0,12.3652-5.5332,12.3652-12.3633v-98v-18.9395V74.7656c0.5928,1.2149,1.1914,2.6094,1.7813,4.2363
		c2.8183,7.8125,5.1894,20.6309,5.1797,40.6387c0,5.5137-0.1758,11.5723-0.5645,18.2227c-0.2578,4.4121,3.1104,8.1953,7.5215,8.4511
		c0.1592,0.0098,0.3174,0.0137,0.4746,0.0137c4.2031,0,7.7285-3.2812,7.9775-7.5332c0.4034-6.9316,0.5909-13.2988,0.5909-19.1543
		C99.9785,89.457,95.1562,72.7539,88.582,62.709c-3.2832-4.9864-7.1269-8.1836-10.6777-9.9551
		c-3.5479-1.7891-6.6621-2.1445-8.4356-2.1387c-0.6367,0-1.1152,0.043-1.416,0.0801c-0.0058,0-0.0107,0.002-0.0166,0.0039H31.9873
		c-0.0078-0.001-0.0147-0.0029-0.0225-0.0039h-0.0019c-0.2988-0.0371-0.7774-0.0801-1.4121-0.0801
		c-1.7735-0.0058-4.8887,0.3496-8.4375,2.1367c-1.626,0.8067-3.2891,1.9082-4.9326,3.3301
		c-3.792,3.2832-7.4717,8.2988-10.3038,15.5117C4.3281,78.0371,2.3008,86.2685,1.125,97.0019
		c-0.7188,6.5567-1.1201,14.044-1.125,22.6368C0.0019,125.4961,0.1894,131.8633,0.5957,138.7988z"/>
	<circle cx="50.0107" cy="22.5" r="22.5"/>
	<path d="M189.3437,149.916h51.333v-21.334h-51.333V149.916z M208.2607,134.3281h13.5c1.2422,0,2.25,1.0078,2.25,2.25
		s-1.0078,2.25-2.25,2.25h-13.5c-1.2431,0-2.25-1.0078-2.25-2.25S207.0176,134.3281,208.2607,134.3281z"/>
	<rect x="191.5107" y="121.8301" width="47" height="2.666"/>
	<rect x="191.5107" y="114.4961" width="47" height="2.666"/>
	<rect x="191.5107" y="107.1621" width="47" height="2.666"/>
	<rect x="191.5107" y="99.8301" width="47" height="2.666"/>
	<path d="M215.708,236.2148h51.333v-21.334h-51.333V236.2148z M234.624,220.6269h13.5c1.2432,0,2.25,1.0079,2.25,2.25
		c0,1.2422-1.0068,2.25-2.25,2.25h-13.5c-1.2422,0-2.25-1.0078-2.25-2.25C232.374,221.6348,233.3818,220.6269,234.624,220.6269z"/>
	<rect x="217.874" y="208.1269" width="47" height="2.6661"/>
	<rect x="217.874" y="200.7949" width="47" height="2.666"/>
	<path d="M152.708,236.2148h51.333v-21.334h-51.333V236.2148z M171.624,220.6269h13.5c1.2432,0,2.25,1.0079,2.25,2.25
		c0,1.2422-1.0068,2.25-2.25,2.25h-13.5c-1.2422,0-2.25-1.0078-2.25-2.25C169.374,221.6348,170.3818,220.6269,171.624,220.6269z"/>
	<rect x="154.874" y="208.1269" width="47" height="2.6661"/>
	<rect x="154.874" y="200.7949" width="47" height="2.666"/>
	<rect x="154.874" y="193.4609" width="47" height="2.666"/>
</g>
</svg>
