<?xml version="1.0" encoding="utf-8"?>
<!-- Svg Vector Icons : http://www.onlinewebfonts.com/icon -->
<!DOCTYPE svg PUBLIC "-//W3C//DTD SVG 1.1//EN" "http://www.w3.org/Graphics/SVG/1.1/DTD/svg11.dtd">
<svg version="1.1" xmlns="http://www.w3.org/2000/svg" xmlns:xlink="http://www.w3.org/1999/xlink" x="0px" y="0px" viewBox="0 0 1000 1000" enable-background="new 0 0 1000 1000" xml:space="preserve">
<metadata> Svg Vector Icons : http://www.onlinewebfonts.com/icon </metadata>
<g><g transform="translate(0.000000,512.000000) scale(0.100000,-0.100000)"><path d="M4674.3,4997.2c-803.4-171-1393.4-920.6-1435.7-1818.2c-40.4-847.6,376.7-1591.4,1076.3-1923.9c230.6-107.6,411.3-148,686.1-148c184.5,0,274.8,9.6,394,42.3c615,165.3,1091.7,647.7,1287.7,1305c146.1,492,103.8,1055.2-111.5,1510.7c-115.3,242.2-223,395.9-397.9,570.8C5765.9,4939.5,5208.6,5110.6,4674.3,4997.2z M5433.4,4557.1c198-78.8,334.4-171.1,490.1-330.6c199.9-207.6,349.8-490.1,415.1-791.9c48.1-224.9,40.4-578.5-19.2-807.2c-88.4-344-294-670.8-538.1-853.3c-493.9-372.9-1066.7-372.9-1560.6,0c-244.1,182.6-449.7,509.3-538.1,853.3c-59.6,228.7-67.3,582.4-19.2,807.2c105.7,486.3,419,901.4,814.9,1084c207.6,94.2,297.9,111.5,561.2,105.7C5254.7,4618.6,5295,4610.9,5433.4,4557.1z"/><path d="M4386,868.8c-655.4-46.1-1139.7-134.5-1649-305.6c-465.1-155.7-551.6-234.5-953.3-868.7c-123-192.2-363.2-565.1-534.3-826.4C221.1-2706,100-2932.8,100-3282.6c0-234.5,36.5-317.1,484.3-1126.3l213.3-378.6l713,3.8l713,5.8l13.5,221c34.6,622.7,259.5,1099.4,726.5,1545.3c576.6,547.8,1435.7,834.1,2291,761.1c411.3-34.6,720.7-115.3,1070.5-280.6c286.4-136.5,503.5-282.5,713-480.5c467-445.9,691.9-922.5,726.5-1545.3l13.5-221l711.1-5.8l711.1-3.8l75,128.8c228.7,403.6,542,987.9,574.6,1080.1c21.2,59.6,42.3,178.8,48,265.2c17.3,313.3-74.9,505.5-707.3,1485.7c-561.2,868.7-665,1032.1-884.1,1395.3c-384.4,634.2-530.4,799.5-801.4,907.2c-499.7,196-1168.6,338.3-1822,388.2C5441.1,880.4,4603.1,884.2,4386,868.8z M5971.6,469.1c138.4-15.4,376.7-55.7,532.4-86.5c278.7-55.7,795.7-205.7,905.2-261.4c151.8-78.8,301.7-269.1,580.4-738c142.2-240.2,359.4-582.4,926.4-1460.7s632.3-1012.9,616.9-1235.8c-9.6-124.9-69.2-251.8-370.9-797.6l-173-311.4l-430.5,3.8l-432.4,5.8l-26.9,182.6c-117.2,834.1-738,1616.3-1608.7,2029.6c-1043.6,495.9-2346.7,422.8-3315.4-184.5c-688.1-430.5-1172.4-1132.1-1272.3-1845.1l-26.9-182.6l-432.4-5.8l-430.5-3.8l-130.7,228.7c-71.1,126.8-194.1,355.6-272.9,509.3c-132.6,257.5-144.1,288.3-144.1,395.9c0,251.8,119.2,465.1,1135.9,2027.7c226.8,349.8,472.8,728.4,543.9,841.8C2333.3-121,2435.2,9.7,2535.1,78.9c242.2,165.3,1082.1,367.1,1754.7,419C4630.1,522.9,5677.5,507.5,5971.6,469.1z"/><path d="M4760.7-2656c-615-53.8-1168.5-297.9-1562.5-686.1c-322.9-321-507.4-701.5-551.6-1139.7c-21.1-205.6,50-315.2,199.9-309.4c115.3,3.8,194.1,113.4,194.1,265.2c0,50,13.5,148,30.8,217.2c144.2,590,705.4,1062.8,1453,1226.2c117.2,25,242.2,34.6,476.6,34.6s359.4-9.6,476.6-34.6c747.6-163.4,1308.9-636.2,1453-1226.2c17.3-69.2,30.8-161.5,30.8-205.7c0-161.4,82.6-276.8,197.9-276.8c198,0,244.1,165.3,155.7,559.3c-165.3,730.3-861,1345.4-1729.7,1527.9c-123,26.9-555.5,71.1-622.7,67.3C4947.2-2638.7,4856.8-2646.4,4760.7-2656z"/></g></g>
</svg>